<svg id="Layer_1" data-name="Layer 1" xmlns="http://www.w3.org/2000/svg" xmlns:xlink="http://www.w3.org/1999/xlink" viewBox="0 0 327.11108 327.11115"><defs><style>.cls-1{fill:url(#linear-gradient);}.cls-2{opacity:0.35;}.cls-3{fill:#1d1d1b;}.cls-4{fill:#fff;}.cls-5{fill:url(#linear-gradient-2);}.cls-6{opacity:0.3;}</style><linearGradient id="linear-gradient" x1="163.55556" y1="319.11112" x2="163.55556" y2="8.00001" gradientUnits="userSpaceOnUse"><stop offset="0" stop-color="#4b91bd"/><stop offset="0.51117" stop-color="#1e3d77"/><stop offset="0.51676" stop-color="#688dbb"/><stop offset="1" stop-color="#dde2ed"/></linearGradient><linearGradient id="linear-gradient-2" x1="163.55556" y1="255.12151" x2="163.55556" y2="69.1748" gradientUnits="userSpaceOnUse"><stop offset="0" stop-color="#adb1b6"/><stop offset="1" stop-color="#eaeef4"/></linearGradient></defs><circle class="cls-1" cx="163.55556" cy="163.55556" r="155.55556"/><g class="cls-2"><path class="cls-3" d="M163.55554,8A155.55558,155.55558,0,1,1,8,163.55554,155.55554,155.55554,0,0,1,163.55554,8m0-8A163.5556,163.5556,0,0,0,47.9043,279.20685,163.55558,163.55558,0,0,0,279.20679,47.9043,162.4852,162.4852,0,0,0,163.55554,0Z"/></g><g class="cls-2"><path class="cls-4" d="M163.55554,16A147.55559,147.55559,0,0,1,267.89307,267.89313,147.55556,147.55556,0,0,1,59.218,59.218,146.58971,146.58971,0,0,1,163.55554,16m0-8A155.55558,155.55558,0,1,0,319.11108,163.55554,155.55554,155.55554,0,0,0,163.55554,8Z"/></g><path class="cls-5" d="M257.17656,145.41779,187.83281,76.074a23.55559,23.55559,0,0,0-33.31256,0l-.00006.00006a23.55559,23.55559,0,0,0,0,33.31256l29.28,29.28H86.59429a23.55553,23.55553,0,0,0-23.55555,23.55548v.00006a23.55554,23.55554,0,0,0,23.55555,23.55554h97.0578l-29.1319,29.1319a23.55552,23.55552,0,0,0,0,33.3125l.00006.00006a23.5555,23.5555,0,0,0,33.31256,0l69.34375-69.34375a23.74345,23.74345,0,0,0,0-33.46069Z"/><g class="cls-6"><path class="cls-3" d="M171.17651,69.1748A23.482,23.482,0,0,1,187.83282,76.074l69.34375,69.34375a23.74343,23.74343,0,0,1,0,33.46069l-69.34375,69.34375a23.55546,23.55546,0,0,1-33.31256,0l-.00006-.00006a23.55554,23.55554,0,0,1,0-33.3125l29.1319-29.1319H86.5943a23.55553,23.55553,0,0,1-23.55554-23.55554v-.00006A23.55552,23.55552,0,0,1,86.5943,138.66669h97.20593l-29.28-29.28a23.55561,23.55561,0,0,1,0-33.31256l.00006-.00006a23.48178,23.48178,0,0,1,16.65625-6.89924m0-4a27.55558,27.55558,0,0,0-19.48474,47.04029l22.4516,22.4516H86.5943a27.55554,27.55554,0,1,0,0,55.11108h87.40094l-22.30347,22.30347a27.55556,27.55556,0,1,0,38.96948,38.96942L260.005,181.70691a27.74353,27.74353,0,0,0,0-39.11755L190.66125,73.24561a27.375,27.375,0,0,0-19.48474-8.07081Z"/></g></svg>