<svg id="Layer_1" data-name="Layer 1" xmlns="http://www.w3.org/2000/svg" xmlns:xlink="http://www.w3.org/1999/xlink" viewBox="0 0 154.45433 154.44451"><defs><style>.cls-1,.cls-4{fill:none;}.cls-2{fill:url(#linear-gradient);}.cls-3{fill:url(#linear-gradient-2);}.cls-4{stroke:#1d1d1b;stroke-miterlimit:10;stroke-width:0.5px;}.cls-5{clip-path:url(#clip-path);}.cls-6{fill:url(#linear-gradient-3);}</style><linearGradient id="linear-gradient" x1="77.22717" y1="154.19451" x2="77.22717" y2="0.25" gradientUnits="userSpaceOnUse"><stop offset="0" stop-color="#e7eaee" stop-opacity="0.2"/><stop offset="0.54283" stop-color="#ebedf1" stop-opacity="0.2"/><stop offset="1" stop-color="#e8ebef" stop-opacity="0.2"/></linearGradient><linearGradient id="linear-gradient-2" x1="77.22714" y1="154.19451" x2="77.22714" y2="0.25001" gradientUnits="userSpaceOnUse"><stop offset="0" stop-color="#14c2dc"/><stop offset="1" stop-color="#f1f4f8"/></linearGradient><clipPath id="clip-path"><path class="cls-1" d="M152.17129,22.14222c-.79769-10.02529-9.80867-19.02641-19.8241-19.8241Q104.81205.25,77.26713.25,49.71722.25,22.18707,2.31812c-10.02529.79769-19.03627,9.79881-19.834,19.8241a734.51945,734.51945,0,0,0,0,110.16012c.79769,10.02529,9.80867,19.02641,19.834,19.8241q27.535,2.068,55.08006,2.06807,27.53513,0,55.08006-2.06807c10.01543-.79769,19.02641-9.79881,19.8241-19.8241A734.51945,734.51945,0,0,0,152.17129,22.14222Zm-8.583,114.49823a6.93844,6.93844,0,0,1-6.94289,6.94294H17.81948a6.94744,6.94744,0,0,1-6.95342-6.94294V17.80412a6.9474,6.9474,0,0,1,6.95342-6.943H136.64539a6.9384,6.9384,0,0,1,6.94289,6.943Z"/></clipPath><linearGradient id="linear-gradient-3" x1="77.22717" y1="86.41673" x2="77.22717" y2="-9.58327" gradientUnits="userSpaceOnUse"><stop offset="0" stop-color="#e0e0e0" stop-opacity="0.1"/><stop offset="1" stop-color="#fff"/></linearGradient></defs><path class="cls-2" d="M152.13625,22.14222c-.79768-10.02529-9.80866-19.02641-19.8241-19.8241Q104.777.25,77.2321.25,49.68217.25,22.152,2.31812c-10.0253.79769-19.03627,9.79881-19.834,19.8241a734.51945,734.51945,0,0,0,0,110.16012c.79769,10.02529,9.80866,19.02641,19.834,19.8241q27.535,2.068,55.08006,2.06807,27.53512,0,55.08005-2.06807c10.01544-.79769,19.02642-9.79881,19.8241-19.8241A734.51945,734.51945,0,0,0,152.13625,22.14222Zm-8.583,114.49823a6.93843,6.93843,0,0,1-6.94288,6.94294H17.78445a6.94744,6.94744,0,0,1-6.95343-6.94294V17.80412a6.9474,6.9474,0,0,1,6.95343-6.943H136.61036a6.93839,6.93839,0,0,1,6.94288,6.943Z"/><path class="cls-3" d="M77.23212,1c18.25879,0,36.77148.6951,55.02045,2.06575,9.60839.76526,18.37158,9.52846,19.1358,19.13261a737.25693,737.25693,0,0,1,.00024,110.04448c-.76446,9.60752-9.52765,18.3707-19.13263,19.13568-18.26233,1.37088-36.775,2.066-55.02386,2.066-18.25867,0-36.77142-.6951-55.02057-2.06573-9.61365-.7649-18.38135-9.52808-19.14563-19.1326A737.2568,737.2568,0,0,1,3.06568,22.20171C3.8302,12.59388,12.5979,3.8307,22.20819,3.066,40.46051,1.69511,58.97321,1,77.23212,1M17.78443,144.3334H136.61035a7.70162,7.70162,0,0,0,7.69288-7.693V17.8041a7.70161,7.70161,0,0,0-7.69288-7.69293H17.78443A7.70692,7.70692,0,0,0,10.081,17.8041V136.64044a7.70692,7.70692,0,0,0,7.70343,7.693M77.23212.25q-27.55,0-55.08008,2.06811c-10.02527.7977-19.03625,9.79882-19.834,19.82409a734.51679,734.51679,0,0,0,0,110.16012c.79773,10.0253,9.80871,19.02643,19.834,19.8241q27.535,2.068,55.08008,2.06808,27.53513,0,55.08-2.06808c10.01544-.79767,19.02642-9.7988,19.82409-19.8241a734.51679,734.51679,0,0,0,0-110.16012c-.79767-10.02527-9.80865-19.02639-19.82409-19.82409Q104.777.25,77.23212.25ZM17.78443,143.5834a6.94746,6.94746,0,0,1-6.95343-6.943V17.8041a6.9474,6.9474,0,0,1,6.95343-6.94293H136.61035a6.93839,6.93839,0,0,1,6.94288,6.94293V136.64044a6.93845,6.93845,0,0,1-6.94288,6.943Z"/><path class="cls-4" d="M152.13625,22.14222c-.79768-10.02529-9.80866-19.02641-19.8241-19.8241Q104.777.25,77.2321.25,49.68217.25,22.152,2.31812c-10.0253.79769-19.03627,9.79881-19.834,19.8241a734.51945,734.51945,0,0,0,0,110.16012c.79769,10.02529,9.80866,19.02641,19.834,19.8241q27.535,2.068,55.08006,2.06807,27.53512,0,55.08005-2.06807c10.01544-.79769,19.02642-9.79881,19.8241-19.8241A734.51945,734.51945,0,0,0,152.13625,22.14222Zm-8.583,114.49823a6.93843,6.93843,0,0,1-6.94288,6.94294H17.78445a6.94744,6.94744,0,0,1-6.95343-6.94294V17.80412a6.9474,6.9474,0,0,1,6.95343-6.943H136.61036a6.93839,6.93839,0,0,1,6.94288,6.943Z"/><g class="cls-5"><path class="cls-6" d="M194.11606,12.41673c0,40.86907-52.33294,74-116.88889,74s-116.88889-33.13093-116.88889-74c0-13.35448,52.33294-22,116.88889-22S194.11606-2.91661,194.11606,12.41673Z"/></g></svg>