<svg id="Layer_1" data-name="Layer 1" xmlns="http://www.w3.org/2000/svg" xmlns:xlink="http://www.w3.org/1999/xlink" viewBox="0 0 9.68475 7.42593"><defs><style>.cls-1{fill:url(#linear-gradient);}.cls-2{fill:url(#linear-gradient-2);}</style><linearGradient id="linear-gradient" x1="4.84232" y1="6.67593" x2="4.84232" y2="0.75" gradientUnits="userSpaceOnUse"><stop offset="0" stop-color="#dadada"/><stop offset="1" stop-color="#fff"/></linearGradient><linearGradient id="linear-gradient-2" x1="4.84238" y1="7.42593" x2="4.84238" gradientUnits="userSpaceOnUse"><stop offset="0" stop-color="#545767"/><stop offset="1" stop-color="#545767"/></linearGradient></defs><polygon class="cls-1" points="5.949 3.71 8.18 6.676 5.949 6.676 4.848 5.186 4.842 5.194 4.836 5.186 3.735 6.676 1.504 6.676 3.735 3.71 1.504 0.75 3.71 0.75 4.842 2.223 5.975 0.75 8.18 0.75 5.949 3.71"/><path class="cls-2" d="M8.18013.75,5.94894,3.70973l2.23119,2.9662H5.94894L4.84834,5.18562l-.00617.00824L4.8363,5.18562,3.73539,6.67593H1.5045l2.23089-2.9662L1.5045.75h2.205L4.84217,2.22266,5.97512.75h2.205M9.68475,0H5.60585L5.38068.29268,4.84225.99255,4.304.29276,4.07884,0H0L.90559,1.20143l1.891,2.50879L.90511,6.22513.002,7.42593H4.1138l.22485-.30436.50359-.68172.50339.68164.22484.30444H9.68279L8.7795,6.22508,6.88781,3.71022,8.779,1.20146,9.68475,0Z"/></svg>